<?xml version="1.0" encoding="UTF-8"?>
<svg id="Camada_1" data-name="Camada 1" xmlns="http://www.w3.org/2000/svg" viewBox="0 0 300 138.53">
  <defs>
    <style>
      .cls-1 {
        fill: #bf2505;
        stroke-width: 0px;
      }
    </style>
  </defs>
  <path class="cls-1" d="M95.35,80.01c-3.01-7.89-7.18-15.62-33-34.23,0,0-.01,0,0,0,4.41,4.45,28.2,21.13,30.67,43.67.84,7.7.1,15.73-4.29,22.17-1.32,1.96-2.88,3.77-4.61,5.39,0,0-.01,0,0,0,3.01-4.17,4.91-9.06,5.45-14.28.99-9.54-1.87-24.82-21.19-43.42-5.34-5.15-9.4-9.98-12.47-14.41h0c1.09-1.76,2.97-4.66,2.97-4.66,0,0,0,0,0,0,0,0,2.26-3,2.24-3.06h0c3.29-4.5,6.37-8.02,9.05-10.79,3.85-3.99,10.35-13.24,3.18-21.95-1.49-1.81-5.34-3.91-9.45-4.27-11.54-1.01-20.51,3.49-26.32,7.46-3.08,1.94-5.87,4.36-7.99,7.39-3.67,5.24-4.77,11.51-3.26,18.66,1.57,6.86,9.97,16.4,9.97,16.4,0,0-3-5.34-4.15-7.53-4-7.75-3.88-15.33-1.95-21.15h0c.64-1.13,2.15-3.6,4.59-6.14,0,0,.01,0,0,0-.81,2.22-1.27,4.7-1.36,7.37-.16,5.04,1,13.76,8.1,24.88h0c-.22.32-.43.63-.64.93-.56.82-1.14,1.67-1.73,2.54-.03-.04-1.48,2.4-2.39,3.5,0,0,0,0,0,0-18.46,25.03-27.76,46.89-29.95,52.01-3.85,9.03-5.78,14.69-6.71,16.19-.28.45.05,1.03.58,1.03h12c.43,0,.76-.4.66-.82-.28-1.26.29-6.45,1.6-10.84,8.01-26.68,20.06-41,20.06-41l.36.16s-10.87,33.26-12.45,44.64c-.17,1.25-1.58,10.06,6.58,16.07,20.36,15.01,62.18,4.69,68.09-31.38,1.19-6.59.16-14.26-2.23-20.48ZM51.25,7.42c2-.07,4.15.11,6.45.61h0c5.19,1.85,7.19,5.61,3.4,12.74-2.32,4.36-6.39,9.69-10.5,14.92h0c-3.22-6.95-3.89-12.41-3.83-15.93.08-5.05,1.67-9.38,4.49-12.34h0ZM46.44,8.12h0c.83-.22,1.69-.39,2.59-.51,0,0,0,0,0,0-2.41,3.15-3.76,7.35-3.84,12.12-.06,3.79.68,9.74,4.32,17.31h0c-.96,1.23-1.92,2.44-2.85,3.63h0c-4.19-7.57-6.14-14.85-5.54-21.28.4-4.29,1.93-7.9,4.38-10.47.29-.31.61-.57.96-.81ZM34.98,22.64c.11-3.7.8-7.16,2.37-9.81h0c1.72-1.41,3.75-2.72,6.09-3.7,0,0,.01,0,0,0-2.06,2.69-3.52,6.2-3.88,10.11-.54,5.75.89,12.36,4.12,19.12.58,1.22,1.22,2.44,1.92,3.66h0c-1.1,1.42-2.15,2.79-3.1,4.09h0c-6.58-10.51-7.67-18.7-7.52-23.48ZM64.75,124.59h0s0,0,0,0c2.35-2.76,3.85-5.83,4.77-8.32,2.6-7.18,2.69-15.03.28-23.32-2.06-7.08-5.2-13.65-11.15-20.05-3.63-3.9-9.73-8.49-9.73-8.49,0,0,5.63,6.03,6.88,7.43,6.23,6.84,16.59,24.16,10.53,43.33-.64,2-2.21,5-3.78,7.27-.88,1.27-2.88,2.31-4.42,2.32,0,0-12.6,2.82-18.39-9.78-5.34-11.62.76-37.4,6.07-50.44h0s1.63-3.8,1.73-3.97c0,0,0,0,0,0-.01-.02,1.01-2.35,1.44-3.23h0c1.95,2.24,4.14,4.54,6.59,6.9,17.13,16.5,20.5,30.44,20.32,39.24-.15,7.39-2.88,14.19-7.73,19.48-.89.96-2.11,1.54-3.42,1.62ZM69.16,124.19s0,0,0,0c5.2-5.58,8.12-12.81,8.29-20.66.19-9.1-3.26-23.5-20.79-40.39-2.6-2.5-4.89-4.94-6.92-7.29h0c.77-1.51,1.53-2.95,2.29-4.34h0c2.75,3.47,5.92,6.95,9.51,10.4,18.24,17.57,21.3,32.05,20.66,41.1-.56,7.84-4.1,14.8-10.04,19.85-.85.72-1.9,1.18-3,1.33ZM74.18,123.15s0,0,0,0c5.65-5.23,9.02-12.22,9.57-20.02.67-9.38-2.46-24.34-21.13-42.33-3.7-3.56-6.96-7.18-9.76-10.78h0c.72-1.28,1.44-2.51,2.15-3.68h0c3.08,4.36,7.08,9.08,12.27,14.08,18.87,18.17,21.68,32.95,20.72,42.15-.81,7.76-5.55,18.22-13.83,20.59Z"/>
  <g>
    <path class="cls-1" d="M101.95,103.14c0-12.96,10.07-22.76,23.73-22.76,10.94,0,19.88,6.22,19.88,15.59,0,1.66-.26,3.15-.7,4.55h-27.93c.09,13.22,6.65,20.75,15.5,20.75,7.7,0,13.66-5.6,15.32-13.57h1.66c-2.01,10.59-11.56,18.21-23.55,18.21-13.66,0-23.9-9.81-23.9-22.76ZM116.93,98.94h14.45c.61-1.93.88-3.94.88-5.87,0-5.78-2.63-10.94-6.65-10.94-4.73,0-8.32,7.71-8.67,16.81Z"/>
    <path class="cls-1" d="M154.66,81.25h1.58l11.82,13.13c3.24-8.14,10.16-14.01,17.69-14.01s11.73,5.08,11.73,12.7v31.96h-14.18v-32.92c0-2.98-1.93-5.08-4.73-5.08-4.03,0-8.06,4.47-9.72,10.51v27.49h-14.18v-43.78Z"/>
    <path class="cls-1" d="M204.04,103.14c0-13.57,7.18-22.76,17.77-22.76,7.09,0,12.43,4.38,15.06,11.56v-29.07h14.18v62.16h-1.58l-11.82-13.22c-2.36,8.67-8.23,14.1-15.85,14.1-10.59,0-17.77-9.19-17.77-22.76ZM236.87,108.05v-9.81c-1.23-6.92-4.9-12.26-9.19-12.26-5.17,0-8.76,7.44-8.76,17.16s3.59,17.16,8.76,17.16c4.29,0,7.97-5.34,9.19-12.26Z"/>
    <path class="cls-1" d="M258.76,115.23c0-6.57,5.25-11.38,13.66-13.05l13.4-2.71v-2.89c0-7.53-4.82-12.7-11.73-12.7-7.44,0-13.57,5.87-14.62,13.48h-1.66c1.14-9.81,10.07-16.99,21.28-16.99s20.93,6.74,20.93,18.12v26.53h-1.58l-11.82-11.64c-3.5,9.19-9.28,12.52-15.59,12.52-6.92,0-12.26-4.12-12.26-10.68ZM277.41,120.22c2.63,0,5.95-2.1,8.41-9.19v-9.89l-4.03.88c-6.39,1.58-9.54,5.87-9.54,11.29,0,4.2,2.01,6.92,5.17,6.92Z"/>
  </g>
</svg>